<?xml version="1.0" encoding="utf-8"?>
<!-- Generator: Adobe Illustrator 26.0.0, SVG Export Plug-In . SVG Version: 6.00 Build 0)  -->
<svg version="1.1" id="Layer_1" xmlns="http://www.w3.org/2000/svg" xmlns:xlink="http://www.w3.org/1999/xlink" x="0px" y="0px"
	 viewBox="0 0 1209.6 220.8" style="enable-background:new 0 0 1209.6 220.8;" xml:space="preserve">
<style type="text/css">
	.st0{fill:#087FFC;}
	.st1{fill:#3B3A3A;}
</style>
<g>
	<g>
		<path class="st0" d="M1203.1,209.5c-9.8,0-19.5,0-29.3,0c-18,0-36,0-54,0c-0.6,0-1.3,0-1.9,0c-0.9,0-1.3-0.4-1.3-1.3
			c0-4.8,0-9.6,0-14.4c0-1,0.6-1.6,1.2-2.3c7.8-9.6,15.6-19.2,23.4-28.8c8.9-11,17.8-21.9,26.7-32.9c0.1-0.1,0.1-0.1,0.1-0.2
			c0.5-0.8,1.5-1.5,1-2.5c-0.5-1-1.6-0.5-2.4-0.5c-15.3,0-30.5,0-45.8,0c-0.6,0-1.1,0-1.7,0c-1.8-0.1-1.8-0.1-1.8-1.9
			c0-6.1,0-12.3,0-18.4c0-1.7,0-1.7,1.7-1.8c0.5,0,1,0,1.4,0c26.2,0,52.3,0,78.4,0c3.8,0,3.1-0.2,3.1,3.3c0,4.2-0.1,8.5,0,12.7
			c0,1.7-0.5,3-1.5,4.3c-15.6,19.7-31.2,39.5-46.7,59.3c-0.4,0.6-0.9,1.1-1.2,1.8c-0.4,0.9,0,1.5,1,1.7c0.6,0.1,1.3,0,1.9,0
			c14.9,0,29.7,0,44.6,0c1,0,1.9-0.1,2.9,0.1C1203.1,194.8,1203.1,202.1,1203.1,209.5z"/>
		<path class="st1" d="M220.4,187.2c-0.1,0.2-0.2,0.4-0.2,0.6c-0.5,0.1-0.4,0.3-0.2,0.6c-1.7,4.9-4.1,9.3-7.8,13
			c-11.3,11.2-29.4,11.4-40.9,0.5c-3.3-3.1-5.6-6.9-7.3-11.1c-7.2-17.4-14.3-34.8-21.5-52.3c-11.2-27.3-22.5-54.6-33.7-81.9
			c-3.7-9-3.6-18,1.3-26.5c5.8-9.9,14.7-15,26.2-14.7c11.4,0.3,20,5.8,25.2,15.9c2.5,4.9,4.3,10.1,6.4,15.2
			c7.5,18.3,15.1,36.6,22.6,54.9c0.3,0.6,0.3,1.4,1.1,1.7c0,1.1,0.4,2,0.8,3c8.5,20.7,17,41.4,25.6,62.1c2.3,5.6,3.3,11.3,2.2,17.3
			C220.1,186.1,220.1,186.6,220.4,187.2z"/>
		<path class="st1" d="M447.7,209.4c-4.2,0-8.5,0-12.7,0c-1.9,0-1.9,0-2.4-1.9c-4.3-16.8-8.6-33.7-13-50.5c-1.5-6-3.1-12-4.7-18.1
			c-0.1-0.5-0.2-0.9-0.4-1.4c-0.1-0.4-0.5-0.6-0.9-0.6c-0.5,0-0.9,0.2-1.1,0.8c-0.2,0.6-0.3,1.2-0.5,1.9c-5.7,22.3-11.3,44.7-17,67
			c-0.1,0.5-0.3,1.1-0.4,1.6c-0.2,1-0.8,1.3-1.7,1.2c-1.5-0.1-3,0-4.6,0c-6.9,0-13.8,0-20.6,0c-2.3,0-2.3,0-2.9-2.2
			c-8.5-32.2-17-64.5-25.5-96.7c-0.4-1.5-0.9-3.1-1.3-4.6c-0.4-1.5-0.3-1.6,1.3-1.6c6,0,12,0,18,0c2,0,4,0,6,0c2.1,0,2.1,0,2.5,2
			c2.2,10.5,4.4,21.1,6.5,31.6c2.7,13.2,5.4,26.4,8.1,39.6c0,0.2,0.1,0.5,0.1,0.7c0.1,0.7,0.2,1.5,1.2,1.4c0.9,0,0.9-0.8,1.1-1.4
			c1.3-5.3,2.6-10.5,3.8-15.8c4.5-18.7,9-37.4,13.5-56.1c0.5-2.1,0.5-2.1,2.7-2.1c7.2,0,14.4,0,21.6,0c3,0,2.5-0.2,3.1,2.4
			c5.8,23.6,11.5,47.1,17.2,70.7c0.2,0.9,0,2.2,1.3,2.2c1.5,0,1.1-1.3,1.3-2.2c4.3-20.9,8.6-41.7,12.9-62.6c0.6-3,1.3-6.1,1.9-9.1
			c0.2-1.1,0.7-1.4,1.8-1.4c8.1,0,16.2,0,24.2,0c1.6,0,1.6,0.1,1.1,1.9c-4.4,16.8-8.8,33.6-13.2,50.5c-4.4,16.8-8.9,33.6-13.3,50.5
			c-0.6,2.3-0.6,2.3-3,2.3C455.9,209.4,451.8,209.4,447.7,209.4z"/>
		<path class="st0" d="M220.4,187.2c-0.3-0.5-0.2-1.1-0.1-1.6c1.1-6,0.1-11.7-2.2-17.3c-8.6-20.7-17.1-41.4-25.6-62.1
			c-0.4-1-0.8-1.9-0.8-3c9.5-23.1,19.1-46.2,28.6-69.4c7.1-17.3,28.1-23.8,43.6-13.2c11.1,7.6,15.6,21.9,10.7,34.5
			c-4,10.2-8.3,20.2-12.4,30.4c-12.4,30.3-24.9,60.5-37.4,90.8C223.2,179.9,222.2,183.7,220.4,187.2z"/>
		<path class="st1" d="M804.6,104.3c-0.1,1-0.7,1.3-1.1,1.8c-12.1,13.8-24.1,27.5-36.2,41.2c-2.1,2.3-2,1.6-0.3,4.1
			c13.1,18.5,26.1,37.1,39.2,55.6c0.4,0.6,1.1,1.2,1.2,2.1c-0.5,0.5-1.2,0.3-1.8,0.3c-9.4,0-18.9,0-28.3,0.1c-1.6,0-2.5-0.5-3.3-1.8
			c-9.1-12.9-18.3-25.8-27.5-38.7c-0.5-0.7-0.9-1.5-1.4-1.8c-2.5,2.3-4.9,4.5-7.3,6.7c-0.8,0.7-0.5,1.6-0.5,2.5c0,10,0,20,0,29.9
			c0,3.4,0.5,3-3.1,3c-7.3,0-14.6,0-21.8,0c-2.7,0-2.6,0.3-2.6-2.6c0-29.4,0-58.8,0-88.1c0-17.2,0-34.3,0-51.5c0-0.2,0-0.5,0-0.7
			c0-2.3,0-2.4,2.4-2.4c7.6,0,15.2,0,22.8,0c0.4,0,0.8,0,1.2,0c0.8,0,1.2,0.3,1.2,1.1c0,0.6,0,1.3,0,1.9c0,25.1,0,50.1,0,75.2
			c0,0.6,0,1.1,0,1.7c0,0.5-0.1,1,0.5,1.2c0.5,0.1,1,0.1,1.3-0.3c0.4-0.4,0.7-0.8,1.1-1.3c10.7-12.6,21.4-25.2,32.1-37.9
			c1-1.1,1.9-1.6,3.4-1.6c9.1,0.1,18.2,0,27.4,0C803.6,104.2,804,104.2,804.6,104.3z"/>
		<path class="st1" d="M602.5,156.5c-0.1,9-1.1,17.6-4.4,25.7c-6.6,16.1-18.6,25.6-35.7,28.5c-8.7,1.5-17.4,1.3-26-0.7
			c-15.4-3.7-26.4-12.9-32-27.7c-6.3-16.6-6.5-33.7-0.2-50.4c6.5-17.3,19.6-26.9,37.9-29.4c7.4-1,14.9-0.9,22.2,0.7
			c18.3,4,29.9,15.3,35.4,33.1C601.8,143,602.4,149.9,602.5,156.5z M528.2,157.8c-0.1,1.6,0.2,4.2,0.5,6.8c0.6,4.7,1.7,9.3,4,13.4
			c3.2,5.9,8,9.7,14.8,10.6c9.2,1.3,17.1-1.7,22-10.1c1.3-2.2,2.3-4.6,2.9-7c2.2-8,2.3-16.1,1.1-24.2c-0.7-4.9-2.4-9.6-5.1-13.8
			c-7.8-11.9-26.9-11.8-34.5,0.1c-1.7,2.7-3,5.4-3.9,8.5C528.7,146.8,528.2,151.7,528.2,157.8z"/>
		<path class="st0" d="M940.3,163.5c-10.9,0-21.8,0-32.6,0c-0.6,0-1.1,0-1.7,0c-1.1-0.1-1.6,0.3-1.6,1.5c0.1,5.6,1.2,10.9,4.4,15.7
			c4,6,9.8,8.9,16.9,9.5c4.3,0.3,8.5,0,12.6-1.4c4.5-1.4,8.2-3.9,10.4-8.2c0.5-0.9,1.1-1.2,2.1-1.2c7.4,0,14.9,0,22.3,0
			c1.7,0,1.8,0.2,1.3,2.1c-2,7.7-6.1,14.2-12.3,19.3c-5.7,4.6-12.1,7.6-19.3,9.2c-10,2.3-20,2.5-30,0.1
			c-16.8-3.9-27.6-14.5-32.9-30.7c-3.3-10-3.6-20.4-2.7-30.8c0.6-7.4,2.4-14.5,5.8-21.1c7.5-14.6,19.4-22.9,35.7-25
			c7-0.9,14.1-0.8,21,0.7c16.6,3.6,27.4,13.8,32.7,29.8c2.5,7.3,3.1,15,3.2,22.7c0,2.2,0,4.3,0,6.5c0,1-0.4,1.5-1.4,1.4
			c-0.6,0-1.1,0-1.7,0C961.9,163.5,951.1,163.5,940.3,163.5z M926.5,145.8c6.5,0,12.9,0,19.4,0c0.6,0,1.1,0,1.7,0
			c0.8,0,1.2-0.4,1.1-1.2c-0.1-1.2-0.3-2.4-0.5-3.6c-3-16.3-21.4-23.5-34.7-13.5c-5.5,4.2-8.1,9.9-8.9,16.6
			c-0.2,1.5-0.1,1.6,1.5,1.6C912.9,145.8,919.7,145.8,926.5,145.8z"/>
		<path class="st0" d="M998,156.8c0-16.4,0-32.7,0-49.1c0-0.5,0-1,0-1.4c0-1.9,0-1.9,1.8-1.9c1.5,0,3,0,4.6,0c5.9,0,11.8,0,17.8,0
			c2.4,0,2.4,0,2.4,2.3c0,4,0,8,0,12c0,0.6,0,1.1,0,1.7c0,0.4,0.2,0.8,0.7,0.8c0.4,0.1,0.8,0,1.1-0.4c0.2-0.3,0.4-0.7,0.6-1.1
			c5.1-10.7,13.9-16.2,25.4-17.4c5.2-0.5,10.4-0.3,15.5,0.9c12.2,3,19.5,11,22.9,22.8c1.3,4.6,1.9,9.4,1.9,14.2
			c0,22.4,0,44.7,0,67.1c0,2.1,0,2.1-2.3,2.1c-7.6,0-15.2,0-22.8,0c-2.3,0-2.4,0-2.4-2.3c0-19.3,0-38.6,0-58c0-3.7-0.2-7.3-1.3-10.9
			c-2.2-7.3-7.3-11.5-14.9-12.1c-2.6-0.2-5.1-0.3-7.6,0.3c-7.8,1.7-12.5,6.7-14.8,14.1c-0.9,2.9-1.1,6-1.1,9c0,18.8,0,37.7,0,56.5
			c0,3.9,0.5,3.4-3.5,3.4c-7.2,0-14.4,0-21.6,0c-2.3,0-2.4,0-2.4-2.4C998,190.3,998,173.5,998,156.8z"/>
		<path class="st0" d="M853.2,137c0,23.1,0,46.1,0,69.2c0,0.5,0,1,0,1.4c0,1.7-0.1,1.8-1.7,1.8c-8,0-16,0-24,0
			c-1.7,0-1.7-0.1-1.8-1.7c0-0.4,0-0.8,0-1.2c0-46.4,0-92.8,0-139.1c0-3.5-0.3-3.1,3.3-3.1c7.1,0,14.2,0,21.4,0c0.6,0,1.1,0,1.7,0
			c0.8,0,1.2,0.4,1.2,1.2c0,0.6,0,1.3,0,1.9C853.2,90.5,853.2,113.7,853.2,137z"/>
		<path class="st1" d="M690.2,129c-5.2-1.6-10.5-1.7-15.8-1.4c-4.1,0.2-8,1.3-11.6,3.5c-6.2,3.7-9.6,9.2-10.4,16.3
			c-0.2,1.9-0.3,3.8-0.3,5.7c0,17.9,0,35.8,0,53.6c0,2.8,0.2,2.6-2.6,2.6c-7.6,0-15.2,0-22.8,0c-2.1,0-2.1,0-2.1-2.1
			c0-33.7,0-67.4,0-101.1c0-2,0-2,2-2c7.6,0,15.2,0,22.8,0c1.8,0,1.9,0,1.9,1.9c0,4.2,0,8.3,0,12.5c0,0.6,0,1.1,0,1.7
			c0,0.3,0.2,0.6,0.5,0.7c0.4,0.1,0.8,0.1,1.1-0.3c0.2-0.3,0.3-0.6,0.4-0.9c3.3-9.2,10.2-14.3,19.4-16.4c5.2-1.2,10.5-1,15.7,0
			c2,0.4,2,0.5,2,2.5c0,7.1,0,14.2,0,21.3C690.5,127.7,690.6,128.2,690.2,129z"/>
		<path class="st0" d="M220,188.3c-0.2-0.3-0.3-0.5,0.2-0.6C220.1,188,220,188.1,220,188.3z"/>
	</g>
	<path class="st1" d="M117.6,168.5c-13.6-33-27.2-66-40.7-98.9C72.2,58.4,67.7,47.2,63,36.1c-1.4-4.7-4-8.9-7.5-12.3
		c-1.9-1.9-4.1-3.5-6.5-4.8c-0.1,0-0.2-0.1-0.2-0.1c-0.5-0.3-1-0.5-1.6-0.8c-0.4-0.2-0.8-0.3-1.1-0.5c-0.2-0.1-0.4-0.2-0.6-0.2
		c-3.3-1.3-6.8-2-10.5-2c-0.1,0-0.2,0-0.2,0c-0.2,0-0.5,0-0.7,0c-0.3,0-0.6,0-0.9,0c-0.3,0-0.6,0-0.9,0c-6,0.5-11.5,2.9-16,6.7
		C9.8,27.6,5.7,35.7,5.7,44.7c0,5,1.3,9.8,3.5,13.9C26.2,99.8,43.1,140.9,60,182c1.6,3.8,3.1,7.7,4.8,11.5
		c5.1,10.5,16.2,17,27.7,16.3c12-0.8,22.1-8.4,26-19.6C121.1,182.8,120.5,175.6,117.6,168.5z"/>
</g>
</svg>
